<?xml version="1.0" standalone="no"?><!DOCTYPE svg PUBLIC "-//W3C//DTD SVG 1.1//EN" "http://www.w3.org/Graphics/SVG/1.1/DTD/svg11.dtd"><svg t="1756034965305" class="icon" viewBox="0 0 1024 1024" version="1.1" xmlns="http://www.w3.org/2000/svg" p-id="1261" xmlns:xlink="http://www.w3.org/1999/xlink" width="200" height="200"><path d="M884.02 444.32c-8.82-50.04-57.93-82.34-107.38-70.63l-67.05 15.88c-1.64 0.39-2.79-1.59-1.63-2.82l47.81-50.69c34.87-36.96 31.44-95.65-7.48-128.31s-97.31-25.84-127.66 14.91l-41.37 55.55c-1.01 1.35-3.16 0.57-3.06-1.11l3.99-68.63c2.95-50.73-37.39-93.48-88.2-93.48s-91.15 42.75-88.2 93.48l3.98 68.39c0.1 1.68-2.05 2.47-3.06 1.11l-41.19-55.31c-30.35-40.75-88.73-47.58-127.66-14.91-38.92 32.66-42.35 91.34-7.48 128.31l47.81 50.69c1.16 1.23 0.01 3.21-1.63 2.82l-67.05-15.88c-49.44-11.71-98.55 20.59-107.38 70.63-8.82 50.04 26.28 97.19 76.74 103.1l68.48 8.01c1.68 0.2 2.07 2.45 0.57 3.21l-61.52 30.91c-45.41 22.81-62.26 79.12-36.86 123.13 25.41 44 82.6 57.56 125.06 29.65l56.18-36.94c1.41-0.93 3.16 0.54 2.49 2.09l-26.34 61.09c-20.12 46.66 3.16 100.63 50.91 118.01 47.75 17.38 100.28-9 114.86-57.68l18.9-63.12c0.48-1.62 2.77-1.62 3.26 0l19.25 64.28c14.58 48.68 67.11 75.05 114.86 57.68 47.75-17.38 71.03-71.35 50.91-118.01l-26.34-61.09c-0.67-1.55 1.09-3.02 2.49-2.09l56.18 36.94c42.46 27.92 99.65 14.36 125.06-29.65 25.41-44 8.55-100.32-36.86-123.13l-63.14-31.72c-1.51-0.76-1.11-3.01 0.57-3.21l71.42-8.36c50.47-5.9 85.57-53.06 76.74-103.1z m-392.17 68.55l0.03-0.2h0.33l-0.16 0.27-0.21-0.07z" fill="#B66BFF" p-id="1262"></path><path d="M596.75 907.42c-8.91 0-17.82-1.19-26.57-3.59-19.65-5.39-37.01-16.4-50.2-31.85-4.46-5.22-8.38-10.92-11.68-16.94-3.31-6.06-1.09-13.65 4.97-16.97 6.06-3.31 13.65-1.09 16.97 4.97 2.47 4.52 5.42 8.79 8.76 12.71 20.46 23.97 54.09 32.83 83.69 22.05 19.83-7.22 35.35-21.86 43.7-41.23 8.36-19.37 8.36-40.71 0-60.08l-26.34-61.09c-2.73-6.34 0.19-13.69 6.53-16.43 6.34-2.73 13.69 0.19 16.43 6.53l26.34 61.09c11.11 25.76 11.11 54.13 0 79.89-11.11 25.76-31.75 45.23-58.11 54.82-11.2 4.08-22.84 6.12-34.49 6.12z m-210.57-1.12c-11.62 0-23.3-2.05-34.61-6.16-28.67-10.43-50.84-32.97-60.83-61.82-8.25-23.82-7.28-49.71 2.71-72.89 2.73-6.34 10.09-9.26 16.43-6.53 6.34 2.73 9.26 10.09 6.53 16.43-7.52 17.43-8.24 36.9-2.04 54.81 7.52 21.71 24.19 38.66 45.75 46.51 19.83 7.22 41.13 5.98 59.98-3.49s32.57-25.81 38.62-46.02l18.9-63.12c1.98-6.61 8.95-10.37 15.56-8.39 6.61 1.98 10.37 8.95 8.39 15.56l-18.9 63.12c-8.05 26.87-26.29 48.6-51.36 61.19-14.31 7.19-29.68 10.81-45.14 10.81z m349.65-336.2c-6.25 0-11.66-4.68-12.4-11.05-0.8-6.86 4.11-13.07 10.96-13.87l71.42-8.36c34.55-4.04 61.86-30.92 66.41-65.36 0.9-6.84 7.19-11.66 14.03-10.75 6.84 0.9 11.66 7.19 10.75 14.03-6.05 45.8-42.36 81.54-88.29 86.91l-71.42 8.36c-0.49 0.06-0.98 0.09-1.47 0.09z" p-id="1263"></path><path d="M334.8 456.34a62.1 77.52 0 1 0 124.2 0 62.1 77.52 0 1 0-124.2 0Z" fill="#FFFFFF" p-id="1264"></path><path d="M339.8 472.34a41.1 51.31 0 1 0 82.2 0 41.1 51.31 0 1 0-82.2 0Z" p-id="1265"></path><path d="M516.8 456.34a62.1 77.52 0 1 0 124.2 0 62.1 77.52 0 1 0-124.2 0Z" fill="#FFFFFF" p-id="1266"></path><path d="M521.8 472.34a41.1 51.31 0 1 0 82.2 0 41.1 51.31 0 1 0-82.2 0Z" p-id="1267"></path><path d="M489.89 663.5c-51.82 0-99.91-23.41-131.94-64.24-4.26-5.43-3.31-13.29 2.12-17.55 5.43-4.26 13.29-3.31 17.55 2.12 27.26 34.74 68.18 54.67 112.27 54.67s85.01-19.93 112.27-54.67c4.26-5.43 12.12-6.38 17.55-2.12 5.43 4.26 6.38 12.12 2.12 17.55-32.03 40.83-80.12 64.24-131.94 64.24z" p-id="1268"></path><path d="M632.99 600.81a12.5 12.5 0 0 1-6.78-2l-23.24-15.03c-5.8-3.75-7.46-11.49-3.71-17.28 3.75-5.8 11.49-7.46 17.28-3.71l23.24 15.03c5.8 3.75 7.46 11.49 3.71 17.28-2.39 3.7-6.41 5.71-10.51 5.71zM346.77 600.81c-4.1 0-8.12-2.02-10.51-5.71-3.75-5.8-2.09-13.54 3.71-17.28l23.24-15.03c5.8-3.75 13.54-2.09 17.28 3.71 3.75 5.8 2.09 13.54-3.71 17.28l-23.24 15.03c-2.1 1.36-4.45 2-6.78 2z" p-id="1269"></path></svg>