<?xml version="1.0" standalone="no"?><!DOCTYPE svg PUBLIC "-//W3C//DTD SVG 1.1//EN" "http://www.w3.org/Graphics/SVG/1.1/DTD/svg11.dtd"><svg t="1756034693894" class="icon" viewBox="0 0 1024 1024" version="1.1" xmlns="http://www.w3.org/2000/svg" p-id="1106" xmlns:xlink="http://www.w3.org/1999/xlink" width="200" height="200"><path d="M880.17 420.74a26.45 26.45 0 0 0-16.97-17.02l-180.59-59.03a76.107 76.107 0 0 1-36.8-26.09L532.66 170.79c-9.72-11.59-26.98-13.12-38.56-3.4a27.998 27.998 0 0 0-3.4 3.4L377.22 318.65a76.127 76.127 0 0 1-36.75 26.02l-180.63 59.04c-13.87 4.54-21.45 19.45-16.91 33.32 0.88 2.66 2.15 5.17 3.82 7.42l109.34 149.4a76.06 76.06 0 0 1 14.69 44.11l2.05 182.94c0.14 14.59 12.06 26.32 26.65 26.18 2.52-0.02 5.03-0.4 7.42-1.14l182.46-55.47a76.119 76.119 0 0 1 44.29 0l182.46 55.47c2.49 0.74 5.06 1.1 7.67 1.1 14.48 0 26.28-11.66 26.42-26.16l2.05-182.94c0.18-15.88 5.32-31.3 14.69-44.11l109.34-149.4c5.03-6.83 6.44-15.65 3.85-23.73" fill="#FFBE3B" p-id="1107"></path><path d="M721.8 859.56c-3.82 0-7.59-0.54-11.21-1.62l-182.55-55.49a63.449 63.449 0 0 0-37.02 0l-132.19 40.18c-6.61 2.01-13.59-1.72-15.59-8.32-2.01-6.61 1.72-13.59 8.32-15.6l132.19-40.18c16.86-5.13 34.69-5.13 51.56 0L717.77 834c1.23 0.36 2.62 0.56 4.03 0.56 7.6 0 13.85-6.18 13.92-13.78l0.6-53.32c0.08-6.85 5.66-12.36 12.5-12.36h0.14c6.9 0.08 12.44 5.74 12.36 12.64l-0.6 53.3c-0.21 21.23-17.67 38.52-38.92 38.52zM861.2 416.22c-1.29 0-2.6-0.2-3.89-0.62l-180.59-59.03c-6.56-2.14-10.14-9.2-8-15.76 2.14-6.56 9.2-10.14 15.77-8l180.59 59.03c6.56 2.14 10.14 9.2 8 15.76-1.72 5.27-6.62 8.62-11.88 8.62z" p-id="1108"></path><path d="M538.88 494.36a73.06 104.51 0 1 0 146.12 0 73.06 104.51 0 1 0-146.12 0Z" fill="#FFFFFF" p-id="1109"></path><path d="M547.59 498.87a51.56 81.78 0 1 0 103.12 0 51.56 81.78 0 1 0-103.12 0Z" p-id="1110"></path><path d="M334.85 499.8a73.06 104.51 0 1 0 146.12 0 73.06 104.51 0 1 0-146.12 0Z" fill="#FFFFFF" p-id="1111"></path><path d="M344.34 498.87a51.56 81.78 0 1 0 103.12 0 51.56 81.78 0 1 0-103.12 0Z" p-id="1112"></path><path d="M548.06 646c6.55 0 11.44 5.96 10.26 12.41-4.84 26.3-24.74 46.01-48.56 46.01-23.82 0-43.72-19.71-48.56-46.01-1.19-6.45 3.71-12.41 10.26-12.41h76.6z" p-id="1113"></path></svg>